<?xml version="1.0" encoding="utf-8"?>
<!-- Generator: Adobe Adobe Illustrator 24.2.0, SVG Export Plug-In . SVG Version: 6.00 Build 0)  -->
<svg version="1.1" xmlns="http://www.w3.org/2000/svg" xmlns:xlink="http://www.w3.org/1999/xlink" x="0px" y="0px"
	 viewBox="0 0 173.62 278.09" style="enable-background:new 0 0 173.62 278.09;" xml:space="preserve">
<style type="text/css">
	.st0{fill:#F92891;}
	.st1{fill:#95D8E8;}
	.st2{fill:#4DA5B9;}
	.st3{fill:#FAC11F;}
	.st4{fill:#F7DB24;}
	.st5{fill:#FF99CB;}
	.st6{fill:#C7EB29;}
	.st7{fill:#BBDD26;}
	.st8{fill:#FE83C0;}
	.st9{fill:#7FCD31;}
	.st10{fill:#69AB27;}
	.st11{fill:#756514;}
</style>
<g id="Calque_1">
</g>
<g id="Terre">
	<path class="st0" d="M40.08,214.5"/>
</g>
<g id="Tige">
	<circle class="st1" cx="89.61" cy="197.08" r="78.76"/>
	<g>
		<path class="st2" d="M168.42,193.59c-2.82,41.06-37.03,73.5-78.81,73.5c-41.78,0-75.99-32.44-78.81-73.5
			c-0.13,1.82-0.19,3.65-0.19,5.5c0,22.58,9.47,42.94,24.66,57.33c0.62,0.6,1.25,1.18,1.89,1.75c7.71,6.84,16.77,12.21,26.73,15.63
			c0.28,0.1,0.56,0.2,0.85,0.29c7.82,2.6,16.18,4,24.87,4c20.94,0,39.98-8.14,54.11-21.45c0.39-0.36,0.78-0.73,1.16-1.12
			c2.01-1.96,3.91-4.02,5.7-6.19c3.07-3.72,5.8-7.72,8.16-11.97v-0.01c0.5-0.89,0.97-1.78,1.43-2.69
			c5.4-10.69,8.44-22.77,8.44-35.57C168.61,197.24,168.55,195.41,168.42,193.59z"/>
	</g>
	<g>
		<path class="st3" d="M37.16,258.17c7.71,6.84,16.77,12.21,26.73,15.63l0.85,0.29l2.51-1.5v-3.77l8.79-1.79l0.49-1.02l3.82-7.95
			l6.28-8.08l-0.36-4.12l-6.64-4.31l-1.07,0.17l-3.75,0.37l-4.15-4.84L66,236.89l-5.38-7.54l-9.51-5.74l-2.16-3.77l-8.61-3.94
			l-2.53-2.78l-0.49-0.54l-1.24,0.1"/>
		<path class="st4" d="M85.3,249.98l-6.28,8.08l-3.72,7.74l-0.59,1.23l-8.79,1.79v3.77l-2.03,1.21
			c-9.96-3.42-19.02-8.79-26.73-15.63l-1.77-1.53l-0.12-0.22l-0.74-2.31l-5.92-5.38l-5.74-14.53l0.75-2.67l1.94-6.84l-0.54-8.08
			l4.43-3.51l6.54-0.52l0.09,0.1l0.4,0.44l2.53,2.78l8.61,3.94l2.16,3.77l9.51,5.74l5.38,7.54l4.66,0.36l4.31,5.02l1.17-0.18
			l3.49-0.54l0.26,0.17l6.38,4.14L85.3,249.98z"/>
		<g>
			<g>
				<path class="st3" d="M65.92,268.82l8.79-1.79l0.59-1.23l0.01-0.02c-21.56-3.94-40.06-16.63-51.69-34.26l0,0.01l-0.75,2.67
					l5.74,14.53l5.92,5.38l0.74,2.31c0.62,0.6,1.25,1.18,1.89,1.75c7.71,6.84,16.77,12.21,26.73,15.63l2.03-1.21V268.82z"/>
			</g>
		</g>
	</g>
	<g>
		<polygon class="st3" points="75,205.8 76.79,209.38 75,218.41 78.15,221.74 83.77,216.97 87.86,216.8 90.25,214.75 91.56,214.63 
			92.66,213.11 94.76,212.95 93.48,211.47 93.87,210.34 92.93,209.17 90.59,209.17 89.42,206.95 86.73,206.4 85.44,205.39 
			83.38,205.39 79.67,205.16 78.62,204.22 76.13,204.22 		"/>
		<polygon class="st4" points="75,205.01 76.79,208.58 75,217.62 78.15,220.94 83.77,216.17 87.86,216 90.25,213.95 91.56,213.83 
			92.66,212.31 94.76,212.15 93.48,210.67 93.87,209.54 92.93,208.37 90.59,208.37 89.42,206.15 86.73,205.61 85.44,204.59 
			83.38,204.59 79.67,204.36 78.62,203.42 76.13,203.42 		"/>
	</g>
	<g>
		<path class="st3" d="M158.74,237.34v0.01v0.01c-0.02,0.04-0.04,0.07-0.07,0.11c-0.12,0.22-0.24,0.45-0.37,0.68
			c-2.26,3.96-4.84,7.69-7.72,11.18c-1.68,2.04-3.45,3.97-5.33,5.83c-0.12,0.12-0.24,0.24-0.37,0.36l-1.16,1.12l1.25-4.31
			l-0.27-4.87l2.47-5.26v-0.01l1.67-3.55l-2.25-11.1l0.46-8.5l-3.64,0.5l-1.59-1.51l-4.76,0.86l-5.3,1.81l-4.69,2.59l-6.56-3.75
			l-1.25-4.03l-3.91-2.17l-0.92-5.47l0.26-10.17l1.99-7.49l3.97-5.91l2.25-7.5l0.92-2.16l0.66-0.01l4.39-1.39h0.01l0.97-1.05
			l17.14,2.78v-0.01l0.11-1.96l1.16-0.33"/>
		<path class="st4" d="M166.66,192.59l-3.93,25.45v0.01l-2.56,16.61c0,0-3.46,6.55-4.58,8.28c-1.27,1.97-5.76,7.39-5.76,7.39
			c-1.79,2.17-2.94,3.23-4.95,5.19l1.31-4.52l-0.27-4.87l2.46-5.25l0.01-0.02l1.67-3.54l-2.25-11.11l0.46-8.5l-3.64,0.5l-1.59-1.51
			l-4.76,0.87l-5.3,1.8l-4.69,2.59l-6.55-3.75l-1.26-4.03l-3.91-2.17l-0.92-5.47l0.26-10.17l1.99-7.49l3.97-5.91l2.25-7.5l0.36-0.84
			l0.56-1.32l3.83-0.07h0.01l0.97-1.05l1.22-1.33l2.97,0.07l3.25-2.02l3.23,4.94l6.47,1.11v0.01l1.13,0.19l0.14-2.49l0.06-1
			l5.87-1.67L166.66,192.59z"/>
	</g>
	<g>
		<g>
			<path class="st4" d="M162.73,218.04l0.01-0.06c-3.46,8.46-8.34,16.18-14.35,22.88l0,0l-0.01,0.02l-2.46,5.25l0.27,4.87
				l-1.31,4.52c2.01-1.96,3.91-4.02,5.7-6.19c3-3.63,5.66-7.53,7.99-11.67c0.44-0.81,0.83-1.54,1.12-2.08
				c0.16-0.31,0.33-0.61,0.49-0.92l2.56-16.61V218.04z"/>
		</g>
	</g>
	<g>
		<path class="st3" d="M124.02,160.81l-5.2,2l-1.54,0.97c0,0,0.02,2.47,0.39,3.46c0.38,1.04,2.59,4.66,2.59,4.66l2.4-0.46l2.17,1.09
			l1.43-1.43l1.26,1.14l0.63-1.71c0,0-0.39-4.49-0.87-5.63C126.72,163.6,124.02,160.81,124.02,160.81z"/>
		<path class="st4" d="M124.76,160.23l-5.2,2l-1.54,0.97c0,0,0.02,2.47,0.39,3.46c0.38,1.04,2.59,4.66,2.59,4.66l2.4-0.46l2.17,1.09
			l1.43-1.43l1.26,1.14l0.63-1.71c0,0-0.39-4.49-0.87-5.63C127.46,163.03,124.76,160.23,124.76,160.23z"/>
	</g>
	<g>
		<g>
			<path class="st3" d="M162.73,218.04l0.01-0.06c-3.46,8.46-8.34,16.18-14.35,22.88l0,0l-0.01,0.02l-2.46,5.25l0.27,4.87
				l-1.31,4.52c2.01-1.96,3.91-4.02,5.7-6.19c3-3.63,5.66-7.53,7.99-11.67c0.44-0.81,0.83-1.54,1.12-2.08
				c0.16-0.31,0.33-0.61,0.49-0.92l2.56-16.61V218.04z"/>
		</g>
	</g>
	<g>
		<path class="st3" d="M17.58,193.41l-2.45-14.39l1.8-10.58l-0.07-3.81c0,0,9.52-14.21,13.93-18.41
			c5.46-5.2,25.57-19.21,25.57-19.21l3.24,6.76l-2.66,3.09l3.02-0.22l-5.68,3.74l0.43,2.52l-1.58,2.16l2.59,0.94l-1.74,2.33
			l-0.93,2.06l3.45-1.08l3.17-2.73l3.53-6.26l3.67-0.14l-0.29,4.17l3.17-0.86l-0.72,2.81l3.38,5.32l-5.11,4.1l-4.17-1.94l-2.66,1.8
			l4.68,4.82l-5.11,2.73l-2.23-1.58l-3.96,1.87l1.58,2.16l-3.6,2.09l-6.26,3.02l-0.14,2.16l-7.99,4.39l-0.58,4.46L34.92,186
			l-1.44-8.78l-7.55-2.23l-5.54,14.17l2.66,1.65l3.6-2.37l-1.58,8.85l3.02,2.66l0.79,12.45c0,0-4.72-9.58-6.48-12.47
			c-1.24-2.04-2.44-6.67-2.44-6.67L17.58,193.41z"/>
		<path class="st4" d="M16.78,191.82l-2.45-14.39l1.8-10.58l-0.07-3.81c0,0,9.52-14.21,13.93-18.41
			c5.46-5.2,25.57-19.21,25.57-19.21l3.24,6.76l-2.66,3.09l3.02-0.22l-5.68,3.74l0.43,2.52l-1.58,2.16l2.59,0.94l-1.74,2.33
			l-0.93,2.06l3.45-1.08l3.17-2.73l3.53-6.26l3.67-0.14l-0.29,4.17l3.17-0.86l-0.72,2.81l3.38,5.32l-5.11,4.1l-4.17-1.94l-2.66,1.8
			l4.68,4.82l-5.11,2.73L57,159.94l-3.96,1.87l1.58,2.16l-3.6,2.09l-6.26,3.02l-0.14,2.16l-7.99,4.39l-0.58,4.46l-1.94,4.32
			l-1.44-8.78l-7.55-2.23l-5.54,14.17l2.66,1.65l3.6-2.37l-1.58,8.85l3.02,2.66l0.79,12.45c0,0-4.72-9.58-6.48-12.47
			c-1.24-2.04-2.44-6.67-2.44-6.67L16.78,191.82z"/>
		<path class="st4" d="M35.07,163.67"/>
	</g>
	<g>
		<polygon class="st3" points="126.93,138.75 129.69,141.95 129.98,144.1 124,147.94 128.73,159.63 132.28,159.17 134.94,161.12 
			139.87,163.52 139.92,163.64 141.29,166.82 141.49,163.07 133.57,157.05 136.91,157.56 142.65,160.88 147.33,166.08 150.02,167.2 
			144.5,160.28 146.07,158.77 146.87,157.61 143.81,151.78 144.59,151.03 146.63,152.44 145.66,148.8 151.2,153.71 148.73,157.57 
			147.73,160.81 151.5,163.97 154.01,161.54 157.36,168.72 159.32,172.98 163.19,176.43 165.13,171.18 161.65,164.58 156.94,155.77 
			149.41,148.6 146.85,144.02 142.59,138.68 135.64,132.31 127.02,127.88 121.89,134.2 		"/>
		<polygon class="st4" points="127.77,138.25 130.53,141.45 130.81,143.6 124.84,147.44 129.56,159.13 133.12,158.67 135.78,160.62 
			140.7,163.02 140.76,163.14 142.13,166.32 142.33,162.57 134.4,156.55 137.75,157.06 143.49,160.38 148.17,165.58 150.85,166.7 
			145.34,159.78 146.9,158.27 147.7,157.11 144.64,151.28 145.43,150.52 147.46,151.94 146.5,148.3 152.03,153.21 149.56,157.07 
			148.57,160.31 152.34,163.47 154.84,161.04 158.2,168.22 160.15,172.48 164.03,175.93 165.96,170.68 162.49,164.08 157.77,155.27 
			150.24,148.1 147.69,143.52 143.43,138.18 136.48,131.81 127.86,127.38 122.73,133.7 		"/>
	</g>
	<path class="st5" d="M89.58,84.01c0,0-2.76-11.83-1.86-15.71c0.47-2.03,2.95-5.77,4.57-7.34c1.22-1.18,4.01-3.28,5.6-4.1
		c1.44-0.74,6.15-2.35,6.15-2.35s-0.39,1.74-0.37,2.28c0.01,0.43,0.19,1.47,0.34,1.87c0.35,0.94,0.75,4.98,0.81,5.91
		c0.07,1.14-2.66,7.31-3.26,8.08c-3.62,4.66-5.9,9.57-5.9,9.57l-3.04,3.4L89.58,84.01z"/>
	<path class="st6" d="M87.34,98.1l1.04-6.52c0,0,0.95-2.35,1.07-3.17c0.27-1.82-0.29-7.34-0.29-7.34s0.33-1.95,0.57-2.42
		c0.2-0.39,0.99-0.92,0.99-0.92l1.34,4.22c0,0,0.87-1.16,1.22-1.52c0.42-0.44,1.87-1.63,1.87-1.63s0.77,2.04,0.72,2.62
		c-0.11,1.38-2.76,4.59-2.76,4.59s-1.81,4.37-1.99,5.89c-0.25,2.07,0.73,8.32,0.73,8.32s-1.48,4.69-3.06,4.57
		C86.74,104.67,87.34,98.1,87.34,98.1z"/>
	<g>
		<path class="st7" d="M93.11,86.03c0,0,0.71-0.87,1.42-1.89c-0.2-0.56-0.41-1.05-0.41-1.05s-1.4,1.24-1.81,1.7
			c-0.33,0.37-1.16,1.56-1.16,1.56l-1.5-4.17c0,0-0.17,0.12-0.37,0.29c0.14,1.76,0.34,4.7,0.16,5.93c-0.07,0.47-0.41,1.45-0.69,2.19
			c0.06,0.92,0.09,1.76,0.03,2.29c-0.09,0.82-0.95,3.21-0.95,3.21l-0.57,4.71c0.06,1.83,0.37,3.92,1.53,4
			c0.91,0.07,1.79-1.49,2.37-2.8c-0.32-1.95-0.68-4.49-0.58-5.67c0.04-0.52,0.27-1.39,0.54-2.3c-0.05-0.86-0.07-1.62,0-2.12
			C91.31,90.4,93.11,86.03,93.11,86.03z"/>
	</g>
	<path class="st8" d="M103.98,54.51c0,0-5.96,3.34-8.11,7.97c-1.4,3.03-2.5,11.76-2.5,11.76s1.94-10.3,5.39-12.69
		C102.87,58.71,103.98,54.51,103.98,54.51z"/>
	<path class="st9" d="M142.78,88.45c-0.27-0.09-4.51-1.57-6.73-1.75c-1.22-0.1-7.31,0.61-7.31,0.61s-10.49,1.89-13.47,1.8
		c-3.39-0.1-11.16-2.9-11.16-2.9s-8.8,7.53-10.71,10.3c-3.27,4.75-1.99,18.75-1.99,18.75s2.15,9.98,3.76,13.06
		c0.82,1.56,3.52,4.77,5.3,6.81c-3.38,8.9-7.38,15.1-7.38,15.1s-4.6-6.52-8.35-16.98c1.51-2.64,3.27-7.07,2.41-12.44
		c-0.47-2.89,0.22-7.12,0.22-7.12s0.45-13.85-0.87-20.82c-0.18-0.94-2.64-3.11-2.64-3.11s-8.47,0.85-17.8-2.46
		c-3.47-1.23-15.08-11.38-15.08-11.38s-4.23-3.03-5.64-3.32c-1.31-0.26-5.25,1.12-5.25,1.12s0.7-8.5,10.11-10.48
		c5.89-1.24,14.31,1.33,14.31,1.33s9.81,4.61,13.14,8.58c1.73,2.06,8.45,14.15,8.45,14.15s2.58,5.85,4.7,5.85
		c2.89,0,12.11-8.41,12.11-8.41s-0.88-3.95,0-4.95c0.78-0.9,5.08-1.36,5.08-1.36s5.96-3.86,8.37-4.08c2.3-0.21,7.6,1.18,7.6,1.18
		s6.36,3.23,8.48,4.64C134.66,81.66,142.46,88.17,142.78,88.45z"/>
	<path class="st10" d="M102.47,81.82c0,0-0.01,0.45,0,1.78c0.01,1.33,0.59,1.58,1.13,2.18c1.7,1.87,7.75,3.25,10.57,3.3
		c2.97,0.05,6.74-0.57,9.67-0.96c2.55-0.34,8.64-1.52,11.74-1.26c1.62,0.14,7.21,1.61,7.21,1.61s-5.36-2.52-6.93-2.98
		c-2.72-0.8-9.69,0.15-9.69,0.15s-8.62,1.17-11.24,0.74c-2.1-0.35-5.89-1.18-7.87-1.7C105.76,84.35,102.47,81.82,102.47,81.82z"/>
	<path class="st10" d="M45.93,72.6c-0.56-0.1-1.14-0.12-1.71-0.07L46,73.02c0,0,5.18,2.51,6.67,4.56c1.69,2.32,10.13,8.11,13.07,9.5
		c2.09,0.99,8.27,2.58,10.43,2.82c2.36,0.26,8.01-0.14,8.01-0.14s-7.91-1.32-9.68-1.93c-2.3-0.8-7.19-3.61-7.19-3.61
		s-11.01-7.85-13.7-9.28C51.63,73.87,47.28,72.83,45.93,72.6z"/>
	<path class="st9" d="M83.73,128.56"/>
	<path class="st9" d="M118.83,117.25"/>
	<path class="st9" d="M76.83,130.28"/>
	<path class="st11" d="M119.33,105.4"/>
	<path class="st10" d="M90.42,118.48c-15.06-0.37-33.38,6.69-47.04,14.55c-4.67,2.69-11.9,8.76-13.73,11.63
		c-4.38,6.88,22.55,9.13,26.96,6.04c3.7-2.59,8.59,4.44,10.4,10.52c1.48,4.96,3.38,14.06,8.45,15.12s7.2-8.19,12.42-11.09
		c4.29-2.37-0.74,6.04,2.25,8.82c2.5,2.33,4.54,1.94,8.21,0.59c3.04-1.12,5.34-13.16,8.23-16.05c1.81-1.81,3.48-4.2,5.6-2.89
		c2.12,1.31,3.53,3.6,5.75,4.75c2.21,1.15,5.87-0.01,5.54-2.48c-0.51-3.84,3.42-6.83,7.16-7.82c3.74-0.99,7.87-0.99,11.11-3.11
		c3.23-2.13,5.54-8.98,2.09-10.73C125.9,127.25,108.17,118.91,90.42,118.48z"/>
	<path class="st9" d="M89.43,117.26c-15.06-0.2-24.46,3.26-37.09,9.02c-4.6,2.1-19.23,14.68-22.38,17.83
		c-4.41,4.41,22.07,2.96,26.49,1.28c3.7-1.4,8.59,2.41,10.4,5.7c1.48,2.69,3.38,7.62,8.45,8.19c5.07,0.57,7.2-4.44,12.42-6.01
		c4.29-1.29-0.74,3.27,2.25,4.78c2.5,1.26,4.54,1.05,8.21,0.32c3.04-0.61,5.34-7.13,8.23-8.7c1.81-0.98,3.48-2.27,5.6-1.57
		s3.53,1.95,5.75,2.58c2.21,0.62,5.87,0,5.54-1.34c-0.51-2.08,3.42-3.7,7.16-4.24c3.74-0.54,7.87-0.53,11.11-1.69
		c3.23-1.15,4.99-5,2.07-7.07C119.96,119.59,107.19,117.49,89.43,117.26z"/>
	<path class="st10" d="M30.5,146.98c0,0,1.32-1.1,1.42-2.15c0.07-0.64-0.18-3.24-0.18-3.24s0.73,1.19,1.09,1.74
		c0.25,0.39,0.45,1.91,0.45,1.91s0.57-0.96,0.73-1.1c0.19-0.17,1.61-0.94,1.61-0.94s-0.84,0.92-0.78,1.32
		c0.04,0.26,0.64,0.81,0.64,0.81s1.39-1,1.87-1.38c1.12-0.88,1.01-2.99,1.01-2.99s0.64,1.37,0.5,2.28
		c-0.13,0.85-0.18,1.43-0.18,1.43s1.32-0.43,1.85-0.78c0.25-0.17,1.3-1.28,1.3-1.28s0,0.57-0.08,0.92
		c-0.08,0.34-0.56,1.84-0.56,1.84s0.73-0.53,1.06-0.72c0.34-0.2,2.01-0.5,2.01-0.5s-1.56,0.57-1.57,0.81
		c-0.01,0.17-0.05,0.43-0.05,0.43s0.84,0.06,1.53-0.1c0.23-0.05,1.21-0.93,1.21-0.93s-0.56,1.09,0.11,1.06
		c0.17-0.01,1.07,0.26,1.07,0.26s0.82,0.18,1.14-0.01c0.18-0.1-0.14-0.84-0.14-0.84s0.52,0.24,0.91,0.52
		c0.1,0.07,0.34,0.57,0.34,0.57s0.37,0.04,0.54-0.01c0.18-0.05,0.6-0.59,0.6-0.59s0.04,0.91-0.05,1.11
		c-0.08,0.18,0.04,0.51,0.01,0.74c-0.06,0.44-0.76,1.7-0.76,1.7l-17.07-1.41L30.5,146.98z"/>
	<g>
		<path class="st10" d="M65.11,121.37c2.31,0.05,8.6-1,10.68-1.66c1.2-0.38,3.17-1.31,4.75-2.09c-5.92,0.59-11.08,1.86-16.28,3.71
			C64.58,121.35,64.87,121.37,65.11,121.37z"/>
	</g>
	<path class="st9" d="M115.41,145.35c0,0-0.86,1.58-0.73,2.99c0.08,0.86,0.82,4.26,0.82,4.26s-0.85-1.5-1.26-2.19
		c-0.29-0.49-0.77-2.48-0.77-2.48s-0.27,1.33-0.37,1.52c-0.12,0.24-1.14,1.4-1.14,1.4s0.5-1.3,0.38-1.82
		c-0.08-0.34-0.69-1.01-0.69-1.01s-0.94,1.46-1.26,2c-0.74,1.28-0.21,4.05-0.21,4.05s-0.82-1.75-0.89-2.97
		c-0.07-1.13-0.15-1.9-0.15-1.9s-1,0.69-1.37,1.21c-0.18,0.25-0.81,1.82-0.81,1.82s-0.12-0.76-0.13-1.23
		c-0.01-0.46,0.09-2.48,0.09-2.48s-0.5,0.77-0.73,1.06c-0.24,0.29-1.56,0.85-1.56,0.85s1.17-0.91,1.13-1.23
		c-0.03-0.22-0.05-0.57-0.05-0.57s-0.71,0.01-1.24,0.28c-0.18,0.09-0.81,1.34-0.81,1.34s0.23-1.5-0.31-1.39
		c-0.14,0.03-0.94-0.24-0.94-0.24s-0.71-0.16-0.94,0.13c-0.12,0.15,0.29,1.09,0.29,1.09s-0.48-0.26-0.86-0.6
		c-0.09-0.08-0.4-0.72-0.4-0.72s-0.31-0.02-0.44,0.06c-0.14,0.09-0.38,0.83-0.38,0.83s-0.22-1.2-0.19-1.48
		c0.03-0.24-0.14-0.67-0.16-0.98c-0.04-0.58,0.28-2.32,0.28-2.32l14.41,0.17L115.41,145.35z"/>
	<path class="st9" d="M86.84,93.84l-0.6,23.17c0,0-2.92,0.52-10.03,2.89c-16.22,5.4,8.39,13.26,8.39,13.26s2.04,5.98,3.02,8.05
		c1.15,2.42,5.47,9.93,5.47,9.93s6.92-9.14,9.37-12.11c2.69-3.25,8.88-10.04,8.83-13.98c-0.03-2.11-3.33-5.01-6.46-6.54
		c-2.06-1.01-13.12-1.01-13.4-2.98c-0.2-1.38-0.1-5.9-0.11-7.54c0-1.43-0.12-4.75-0.12-4.75s0.06-4.79-0.92-6.09
		c-0.51-0.68-2.71-1.46-2.71-2.28"/>
	<path class="st9" d="M71.15,157.6c0,0,1.38,1.15,1.78,2.5c0.24,0.83,0.81,4.26,0.81,4.26s0.24-1.71,0.36-2.5
		c0.09-0.56-0.2-2.59-0.2-2.59s0.75,1.13,0.91,1.28c0.2,0.18,1.58,0.88,1.58,0.88s-0.95-1.02-1.02-1.55
		c-0.05-0.35,0.27-1.19,0.27-1.19s1.41,1.01,1.91,1.4c1.16,0.91,1.69,3.69,1.69,3.69s0.11-1.93-0.27-3.08
		c-0.36-1.08-0.57-1.82-0.57-1.82s1.19,0.27,1.72,0.62c0.25,0.16,1.43,1.4,1.43,1.4s-0.17-0.75-0.33-1.19c-0.16-0.43-1-2.27-1-2.27
		s0.75,0.54,1.07,0.72c0.33,0.18,1.77,0.22,1.77,0.22s-1.42-0.41-1.51-0.72c-0.06-0.21-0.16-0.55-0.16-0.55s0.66-0.25,1.26-0.19
		c0.2,0.02,1.24,0.95,1.24,0.95s-0.77-1.3-0.23-1.4c0.14-0.02,0.79-0.57,0.79-0.57s0.6-0.41,0.92-0.23c0.17,0.1,0.14,1.12,0.14,1.12
		s0.35-0.42,0.58-0.87c0.06-0.11,0.1-0.82,0.1-0.82s0.28-0.13,0.44-0.1c0.16,0.03,0.66,0.64,0.66,0.64s-0.24-1.2-0.37-1.44
		c-0.12-0.21-0.12-0.67-0.21-0.97c-0.18-0.56-1.11-2.05-1.11-2.05l-13.33,5.48L71.15,157.6z"/>
	<g>
		<path class="st10" d="M122.25,123.66c-7.37-3.32-13.84-4.94-20.5-5.72c-0.01,0.44-0.02,0.82-0.01,1.08
			c0.01,1.33,0.59,1.58,1.13,2.18c1.7,1.87,7.75,3.25,10.57,3.3C116.12,124.56,119.46,124.05,122.25,123.66z"/>
	</g>
	<path class="st10" d="M63.8,149.13c0,0-1.09,1.15-1.06,2.19c0.02,0.63,0.57,3.15,0.57,3.15s-0.83-1.12-1.23-1.64
		c-0.28-0.36-0.66-1.85-0.66-1.85s-0.41,0.98-0.54,1.12c-0.16,0.18-1.39,1.01-1.39,1.01s0.66-0.95,0.57-1.33
		c-0.07-0.25-0.7-0.75-0.7-0.75s-1.17,1.06-1.57,1.45c-0.93,0.93-0.56,2.98-0.56,2.98s-0.77-1.31-0.76-2.2
		c0.02-0.84-0.01-1.41-0.01-1.41s-1.17,0.49-1.62,0.87c-0.22,0.18-1.05,1.33-1.05,1.33s-0.08-0.56-0.04-0.91
		c0.03-0.34,0.29-1.83,0.29-1.83s-0.61,0.56-0.9,0.77c-0.29,0.21-1.81,0.6-1.81,0.6s1.38-0.65,1.36-0.89
		c-0.01-0.16-0.01-0.42-0.01-0.42s-0.79-0.01-1.41,0.19c-0.21,0.07-1.01,0.98-1.01,0.98s0.38-1.1-0.23-1.03
		c-0.15,0.02-1.03-0.19-1.03-0.19s-0.78-0.13-1.06,0.08c-0.15,0.11,0.23,0.81,0.23,0.81s-0.51-0.2-0.92-0.46
		c-0.1-0.06-0.39-0.54-0.39-0.54s-0.35-0.02-0.5,0.04c-0.16,0.06-0.49,0.61-0.49,0.61s-0.15-0.89-0.09-1.09
		c0.05-0.18-0.1-0.5-0.1-0.73c0-0.43,0.49-1.7,0.49-1.7l16.08,0.38L63.8,149.13z"/>
	<path class="st10" d="M86.25,162.99c0,0,0.02,1.58,0.76,2.31c0.45,0.44,2.6,1.87,2.6,1.87s-1.38-0.23-2.02-0.33
		c-0.45-0.07-1.76-0.87-1.76-0.87s0.38,0.99,0.39,1.18c0.01,0.24-0.3,1.69-0.3,1.69s-0.18-1.15-0.52-1.35
		c-0.22-0.14-1.02-0.06-1.02-0.06s-0.11,1.57-0.12,2.13c-0.03,1.31,1.67,2.54,1.67,2.54s-1.46-0.4-2.07-1.06
		c-0.57-0.61-0.98-1-0.98-1s-0.5,1.17-0.57,1.75c-0.03,0.28,0.17,1.69,0.17,1.69s-0.44-0.35-0.66-0.62
		c-0.21-0.26-1.06-1.52-1.06-1.52s-0.05,0.83-0.11,1.18c-0.06,0.35-0.89,1.69-0.89,1.69s0.54-1.42,0.37-1.58
		c-0.12-0.11-0.3-0.29-0.3-0.29s-0.57,0.54-0.88,1.11c-0.11,0.19-0.05,1.4-0.05,1.4s-0.49-1.06-0.88-0.58
		c-0.1,0.12-0.88,0.58-0.88,0.58s-0.65,0.45-0.71,0.79c-0.03,0.18,0.73,0.42,0.73,0.42s-0.51,0.21-0.98,0.31
		c-0.11,0.02-0.65-0.12-0.65-0.12s-0.26,0.23-0.33,0.38c-0.07,0.16,0.07,0.77,0.07,0.77s-0.73-0.54-0.83-0.72
		c-0.09-0.16-0.42-0.29-0.57-0.45c-0.3-0.31-0.83-1.57-0.83-1.57l11.84-10.89L86.25,162.99z"/>
	<path class="st10" d="M95.79,172.37c0,0,1.56-0.26,2.41,0.34c0.52,0.37,2.3,2.24,2.3,2.24s-0.47-1.31-0.67-1.94
		c-0.15-0.44-1.16-1.58-1.16-1.58s1.04,0.2,1.23,0.17c0.23-0.03,1.61-0.59,1.61-0.59s-1.16,0.02-1.42-0.27c-0.17-0.19-0.24-1-0.24-1
		s1.53-0.38,2.08-0.49c1.29-0.26,2.79,1.2,2.79,1.2s-0.65-1.37-1.41-1.86c-0.7-0.45-1.16-0.79-1.16-0.79s1.06-0.7,1.62-0.87
		c0.27-0.08,1.69-0.13,1.69-0.13s-0.42-0.38-0.73-0.54c-0.3-0.16-1.68-0.77-1.68-0.77s0.81-0.2,1.14-0.32
		c0.34-0.12,1.51-1.17,1.51-1.17s-1.31,0.78-1.5,0.64c-0.13-0.1-0.34-0.24-0.34-0.24s0.43-0.66,0.94-1.07
		c0.17-0.14,1.37-0.29,1.37-0.29s-1.12-0.3-0.72-0.76c0.1-0.12,0.42-0.96,0.42-0.96s0.33-0.72,0.66-0.84
		c0.18-0.06,0.54,0.65,0.54,0.65s0.12-0.54,0.13-1.02c0-0.12-0.23-0.62-0.23-0.62s0.18-0.3,0.31-0.39c0.14-0.1,0.78-0.06,0.78-0.06
		s-0.66-0.62-0.85-0.69c-0.18-0.06-0.36-0.36-0.55-0.49c-0.36-0.24-1.69-0.54-1.69-0.54l-8.65,13.56L95.79,172.37z"/>
	<path class="st10" d="M124.23,149.61c0,0,1.63,0.89,1.98,1.98c0.21,0.67,0.52,3.46,0.52,3.46s0.51-1.41,0.77-2.07
		c0.18-0.46,0.06-2.12,0.06-2.12s0.82,0.9,1.01,1.01c0.24,0.14,1.91,0.65,1.91,0.65s-1.09-0.8-1.12-1.23
		c-0.02-0.28,0.5-0.99,0.5-0.99s1.69,0.77,2.28,1.06c1.38,0.7,1.72,2.95,1.72,2.95s0.38-1.59,0.03-2.52
		c-0.33-0.87-0.5-1.47-0.5-1.47s1.49,0.17,2.13,0.43c0.3,0.12,1.66,1.09,1.66,1.09s-0.12-0.61-0.28-0.96c-0.16-0.34-1-1.82-1-1.82
		s0.89,0.41,1.28,0.54c0.4,0.14,2.24,0.1,2.24,0.1s-1.77-0.28-1.84-0.53c-0.05-0.17-0.14-0.44-0.14-0.44s0.88-0.24,1.64-0.21
		c0.26,0.01,1.48,0.73,1.48,0.73s-0.83-1.04-0.12-1.14c0.18-0.03,1.08-0.5,1.08-0.5s0.82-0.36,1.21-0.23
		c0.21,0.07,0.04,0.92,0.04,0.92s0.5-0.36,0.85-0.74c0.09-0.09,0.23-0.68,0.23-0.68s0.38-0.12,0.57-0.1
		c0.2,0.02,0.76,0.49,0.76,0.49s-0.16-0.98-0.3-1.17c-0.12-0.17-0.07-0.55-0.16-0.79c-0.16-0.45-1.18-1.64-1.18-1.64l-17.77,5.07
		L124.23,149.61z"/>
	<path class="st10" d="M119.12,151.13c0,0,0.77-1.32,0.54-2.24c-0.14-0.56-1.14-2.66-1.14-2.66s0.98,0.78,1.44,1.13
		c0.33,0.25,0.97,1.47,0.97,1.47s0.19-0.98,0.28-1.14c0.11-0.2,1.07-1.28,1.07-1.28s-0.42,1.03-0.26,1.34
		c0.11,0.21,0.78,0.49,0.78,0.49s0.86-1.26,1.15-1.73c0.67-1.08-0.07-2.82-0.07-2.82s0.96,0.96,1.12,1.76
		c0.15,0.75,0.28,1.26,0.28,1.26s0.98-0.76,1.32-1.22c0.16-0.22,0.7-1.48,0.7-1.48s0.18,0.48,0.22,0.8
		c0.04,0.31,0.09,1.72,0.09,1.72s0.45-0.67,0.67-0.93c0.23-0.27,1.54-1.03,1.54-1.03s-1.13,0.96-1.07,1.16
		c0.04,0.14,0.09,0.37,0.09,0.37s0.72-0.21,1.25-0.55c0.18-0.12,0.73-1.15,0.73-1.15s-0.13,1.09,0.41,0.86
		c0.14-0.06,0.98-0.11,0.98-0.11s0.74-0.1,0.96-0.36c0.12-0.14-0.37-0.66-0.37-0.66s0.51,0.04,0.93,0.16
		c0.1,0.03,0.46,0.38,0.46,0.38s0.32-0.08,0.45-0.17c0.14-0.1,0.33-0.68,0.33-0.68s0.31,0.76,0.3,0.95
		c-0.01,0.17,0.19,0.42,0.23,0.62c0.08,0.39-0.12,1.66-0.12,1.66l-14.78,4.03L119.12,151.13z"/>
</g>
</svg>
