<?xml version="1.0" encoding="utf-8"?>
<!-- Generator: Adobe Adobe Illustrator 24.2.0, SVG Export Plug-In . SVG Version: 6.00 Build 0)  -->
<svg version="1.1" id="Bol" xmlns="http://www.w3.org/2000/svg" xmlns:xlink="http://www.w3.org/1999/xlink" x="0px" y="0px"
	 viewBox="0 0 71.05 57.33" style="enable-background:new 0 0 71.05 57.33;" xml:space="preserve">
<style type="text/css">
	.st0{fill:#A8175B;}
	.st1{fill:#69088E;}
	.st2{fill:#C1BBB4;}
	.st3{fill:#FBEFE5;}
	.st4{fill:#E7DBD2;}
	.st5{fill:none;stroke:#A9175C;stroke-width:4;stroke-miterlimit:10;}
	.st6{fill:none;stroke:#A8175B;stroke-miterlimit:10;}
	.st7{fill:#69088E;stroke:#69088E;stroke-miterlimit:10;}
	.st8{fill:#F6EEE5;}
	.st9{fill:none;stroke:#000000;stroke-miterlimit:10;}
	.st10{fill:none;stroke:#E2DBD2;stroke-miterlimit:10;}
	.st11{fill:#D0CAC2;}
	.st12{fill:#B0E2E5;}
</style>
<g>
	<path class="st0" d="M47.71,45.83c0,0,12.12,8.4,9,9c-13.23,2.56-13,2.5-17.5,2.5s-5.13,0.07-18.5-2.5c-3.12-0.6,9-9,9-9H47.71z"/>
	<path class="st1" d="M25.71,48.72l-1.52,1.31c0,0,5.41,3.05,14.52,3.05c9.26,0,15.74-2,15.74-2l-1.81-1.52
		c0,0-11.35-0.15-14.88-0.37C34.81,49.01,25.71,48.72,25.71,48.72z"/>
	<path class="st2" d="M13.44,16.52c0,0,11.26-2.96,21.46-4.03c5.2-0.55,10.39,0.75,16.71,0.58c6.89-0.18,12.08,5.26,12.08,5.26
		s2.55,6.05-0.24,12.44c-3.27,7.49-8.57,6-25.31,6c-13.5,0-20.42-2.86-23.81-6.25C8.24,24.44,13.44,16.52,13.44,16.52z"/>
	<path class="st3" d="M10.48,19.52c0,0,17.6,7.8,26.2,2.22c2.46-1.6,10.4,1.08,16.72,0.91c6.89-0.18,12.08-3.13,12.08-3.13
		s3.98,18.78-1.74,24.5c-5.78,5.78-8.57,6-25.31,6c-13.5,0-20.42-2.86-23.81-6.25C8.54,37.69,10.48,19.52,10.48,19.52z"/>
	<path class="st4" d="M11.37,22.12c0,0,1.81,0.13,10.48,1.47c5.17,0.8-3.97,0.17,2.34,0c6.89-0.18,4.95-0.18,4.95-0.18
		s-2.49,4.17-2.49,11.35c0,5.11,3.58,13.94,3.58,13.94s0.02,0.85-6.03-0.84c-6.93-1.94-6.02-1.91-8.92-4.8
		C9.19,36.99,11.37,22.12,11.37,22.12z"/>
	<path class="st5" d="M11.74,17.17c8.16-2.53,21.64-4.4,30.92-4.06c6.14,0.22,23.73,2.84,23.61,5.55
		c-0.03,0.67-9.37,5.49-13.46,4.89c-1.83-0.27-7.64-4.14-9.36-4.02c-2.11,0.15-7.65,2.84-9.49,3.24c-3.71,0.8-9.67,0.1-12.61-0.25
		C7.56,20.89,11.25,17.32,11.74,17.17z"/>
	<path class="st6" d="M54.45,10.22"/>
	<path class="st7" d="M14.28,18.33c0,0,0.66-2.39,6.25-3.54c3.93-0.81,11.95-1.67,15.97-1.73c6.15-0.1,18.6,0.85,24.31,3.72
		c2.54,1.27,2.01,1.55,2.01,1.55s-11.75-3.32-22.01-3.62c-7.75-0.22-11.96,0.69-16.99,1.19C21.07,16.17,14.28,18.33,14.28,18.33z"/>
	<path class="st7" d="M37.02,23.28c0,0,3.96-1.54,5.71-1.75c1.83-0.22,6.17,1.89,6.17,1.89s-3.9-4.39-5.99-3.87
		C39.94,20.3,37.02,23.28,37.02,23.28z"/>
	<path d="M41.89,25.61c0,1.46-3.73,2.42-4.63,3.57c-1.24,1.58-1.3,6.84-0.59,8.03c0.43,0.71,2.32,1.5,3.16,1.32
		c0.72-0.15,1.56-1.13,1.56-1.82"/>
	<path d="M44.03,25.61c0,1.46,3.73,2.42,4.63,3.57c1.24,1.58,1.3,6.84,0.59,8.03c-0.43,0.71-2.32,1.5-3.16,1.32
		c-0.72-0.15-1.56-1.13-1.56-1.82"/>
	<path class="st8" d="M42.12,42.47l-6.29-1.91c0,0-1.61-3.02-0.6-3.46c0.6-0.27,3.24-0.44,4.39-0.29c0.98,0.13,2.12,0.61,2.1,0.91"
		/>
	<path class="st8" d="M43.13,42.47l6.29-1.91c0,0,1.61-3.02,0.6-3.46c-0.6-0.27-3.24-0.44-4.39-0.29c-0.98,0.13-2.12,0.61-2.1,0.91"
		/>
	<path class="st9" d="M39.32,44.65c-0.85,0.94,2.97-3.53,3.64-3.54c0.95,0,3.27,5.42,2.33,3.51"/>
	<path class="st10" d="M40.91,44.86c-0.4,0.42,1.41-1.58,1.73-1.58c0.45,0,1.55,2.42,1.11,1.57"/>
	<path class="st10" d="M36.21,36.76c0,0.71,1.26-0.5,1.58-0.5c0.45,0,3.51,1.92,3.06,1.07"/>
	<path class="st10" d="M49.21,36.61c0,0.71-1.26-0.5-1.58-0.5c-0.45,0-3.51,1.92-3.06,1.07"/>
	<polygon class="st11" points="22.07,46.69 19.26,43.79 18,42.61 18.25,40.53 18.93,38.53 19.31,35.81 18.53,33.21 21.62,38.03 
		21.17,41.82 21.49,43.53 22.31,45.19 23.22,47.13 	"/>
	<polygon class="st11" points="20.03,40.57 21.09,39.33 21.55,38.84 21.86,37.8 22.06,36.77 22.45,35.4 23.05,34.18 21.6,36.34 
		21.04,38.23 20.69,39.05 20.24,39.81 19.72,40.7 	"/>
	<polygon class="st11" points="20.58,42.99 18.75,42.74 17.98,42.66 17.19,41.87 16.53,40.99 15.51,39.93 14.28,39.24 16.95,40.09 
		18.39,41.53 19.16,42.04 20.03,42.4 21.03,42.83 	"/>
	<polygon class="st2" points="20.49,44.11 19.5,42.13 19.05,41.32 19.21,39.95 19.54,38.63 19.77,36.83 19.55,35.09 20.59,38.35 
		20.3,40.86 20.37,42 20.63,43.11 20.92,44.42 	"/>
	<polygon class="st11" points="19.95,36.11 19.45,34.52 19.27,33.86 18.53,33.02 17.75,32.27 16.78,31.17 16.05,29.98 17.14,32.41 
		18.47,33.95 18.99,34.71 19.4,35.51 19.9,36.45 	"/>
	<path class="st12" d="M18.88,20.2c0,0-13.17-13.1-17.57-17.5c-0.65-0.65,2.19-3.27,2.82-2.6c4.98,5.33,17.22,20.46,17.22,20.46"/>
</g>
</svg>
