<?xml version="1.0" encoding="utf-8"?>
<!-- Generator: Adobe Adobe Illustrator 24.2.0, SVG Export Plug-In . SVG Version: 6.00 Build 0)  -->
<svg version="1.1" id="Calque_1" xmlns="http://www.w3.org/2000/svg" xmlns:xlink="http://www.w3.org/1999/xlink" x="0px" y="0px"
	 viewBox="0 0 113 79.38" style="enable-background:new 0 0 113 79.38;" xml:space="preserve">
<style type="text/css">
	.st0{fill:#E1E1D7;}
	.st1{fill:#A8175B;}
	.st2{fill:#69088E;}
	.st3{fill:#FAF8ED;}
	.st4{fill:#F2E3C8;}
	.st5{fill:none;stroke:#A8175B;stroke-width:7;stroke-miterlimit:10;}
	.st6{fill:#AFE1ED;}
	.st7{fill:#F7FAD7;}
	.st8{fill:#F6E3C8;}
</style>
<g>
	<path class="st0" d="M65.27,17.14c0,0-7.78,0.15-10.47,0.64c-11.15,2.05-45.11,3.25-45.11,3.25s0.09,15.98,2.19,21.18
		c1.48,3.67,5.53,12.76,8.53,16.18c2.29,2.61,7.99,5.98,11.58,7.5c2.53,1.08,7.64,3.3,10.36,3.75c3.55,0.59,11.88,0.41,17.2,0.21
		c5.31,0.2,13.65,0.38,17.2-0.21c2.72-0.45,7.82-2.67,10.36-3.75c3.58-1.52,9.29-4.89,11.57-7.5c3-3.42,7.05-12.5,8.53-16.18
		c2.1-5.2,2.44-17.57,2.44-17.57L65.27,17.14z"/>
</g>
<g>
	<path class="st1" d="M80.26,64.88c-3.38-3.63-10.5-8.67-10.5-14.5h-8.12h-0.88h-8.12c0,5.83-7.12,10.87-10.5,14.5
		c-2.65,2.84-10.68,14.5-7.75,14.5c3.69,0,18,0,18,0h8.37h0.88h8.37c0,0,14.31,0,18,0C90.94,79.38,82.91,67.72,80.26,64.88z"/>
</g>
<g>
	<path class="st2" d="M82.76,67.41c-3.69-3.81-11.97-8.6-11.97-14.72h-8.86h-0.96H52.1c0,6.11-8.27,10.81-11.97,14.62
		c-0.87,0.9-2.1,2.93-3.42,5.02c2.1,0.77,4.42,1.67,5.89,1.9c3.89,0.62,13.02,0.43,18.84,0.22c5.82,0.21,14.95,0.4,18.84-0.22
		c1.47-0.23,3.59-0.68,5.69-1.45C84.53,70.79,83.63,68.3,82.76,67.41z"/>
</g>
<g>
	<g>
		<g>
			<path class="st3" d="M98.73,29.41c-3.64,0.62-10.98,1.89-14.89,2.15c-0.32,0.02-0.67,0.04-1.04,0.06
				c-0.88-1.44-2.55-4.01-3.59-4.96c-0.89-0.82-2.85-1.68-4.02-2.01c-0.83-0.23-2.51-0.71-3.35-0.7c-1.09,0.02-3.51,0.65-5.04,1.08
				c-1.57,0.28-4.02,0.78-5.01,1.23c-0.75,0.35-2.06,1.52-2.7,2.09c-0.86,0.76-2.13,2.25-2.64,3.36
				c-7.52,0.09-17.51,0.14-22.05-0.16c-3.9-0.26-11.25-1.53-14.89-2.15c-2.95-0.5-6.89-1.34-10.34-2.26
				c0.16,3.36,0.71,12.06,2.39,16.21c1.49,3.67,5.55,12.76,8.56,16.18c2.3,2.61,8.02,5.98,11.61,7.5c2.54,1.08,7.66,3.3,10.39,3.75
				c3.56,0.59,11.92,0.41,17.25,0.21c5.33,0.2,13.69,0.38,17.25-0.21c2.72-0.45,7.85-2.67,10.39-3.75c3.59-1.52,9.32-4.89,11.61-7.5
				c3.01-3.42,7.07-12.5,8.56-16.18c1.7-4.2,2.25-13.09,2.4-16.34C106.01,27.98,101.82,28.89,98.73,29.41z"/>
		</g>
		<path class="st4" d="M10.27,27.78c-1.1,11.07,3.01,24.05,10.98,31.81S42.66,72.36,53.7,70.96c-4.46-0.89-10.9-5.2-16.64-8.77
			c-4.01-2.5-6.16-6.46-8.3-9.84c-5.15-8.13-6.03-15.01-6.03-15.01s14.79,2.47,33.73-1.93c6.96-1.61,9.99-5.85,13.42-5.85
			c4.44,0,7.75,5.41,14.27,5.63c9.4,0.31,22.15-3.9,25.98-6.51c-7.67,3.14-28.67,2.06-35.37-2.82c-4.82-3.51-5.37-1.45-8.55,0
			C49.25,33.63,27.26,36.66,10.27,27.78z"/>
	</g>
	<g>
		<path class="st3" d="M66.2,25.88c0.97-0.44,1.69-0.94,2.36-1.32c-0.63,0.16-1.25,0.32-1.76,0.47c-1.57,0.28-4.02,0.78-5.01,1.23
			c-0.75,0.35-2.06,1.52-2.7,2.09c-0.19,0.16-0.39,0.37-0.61,0.59C61.15,28.04,63.73,27.01,66.2,25.88z"/>
		<path class="st3" d="M109.47,28.94c0.05-0.75,0.08-1.41,0.1-1.92c-3.57,0.96-7.76,1.87-10.85,2.39c-1.45,0.25-3.48,0.59-5.66,0.94
			C99.41,30.71,105.71,30.25,109.47,28.94z"/>
		<path class="st3" d="M74.76,25.88c1.43,1.04,3.51,1.91,5.97,2.6c-0.54-0.75-1.08-1.42-1.51-1.82c-0.89-0.82-2.85-1.68-4.02-2.01
			c-0.83-0.23-2.51-0.71-3.35-0.7c-0.19,0-0.42,0.03-0.67,0.06C72.08,24.19,73.19,24.74,74.76,25.88z"/>
		<path class="st3" d="M10.27,27.78c11.33,5.93,24.88,6.55,37.68,4.01c-5.37,0.02-10.6-0.03-13.54-0.23
			c-3.9-0.26-11.25-1.53-14.89-2.15c-2.95-0.5-6.89-1.34-10.34-2.26c0.16,3.36,0.71,12.06,2.39,16.21c0.36,0.9,0.88,2.12,1.5,3.5
			C10.67,40.73,9.66,33.96,10.27,27.78z"/>
		<path class="st3" d="M84.15,35.2c-6.51-0.22-9.82-5.63-14.27-5.63c-3.43,0-6.46,4.23-13.42,5.85
			c-18.94,4.39-33.73,1.93-33.73,1.93s0.5,7.13,6.03,15.01c5.16,7.36,17.43,17.1,24.94,18.6c-1.28,0.16-2.6,0.23-3.94,0.23
			c3.29,0.01,6.86-0.09,9.62-0.19c5.33,0.2,13.69,0.38,17.25-0.21c2.72-0.45,7.85-2.67,10.39-3.75c3.59-1.52,9.32-4.89,11.61-7.5
			c3.01-3.42,7.07-12.5,8.56-16.18c1.41-3.49,2.03-10.22,2.28-14.26C105,31.72,93.07,35.5,84.15,35.2z"/>
		<path class="st3" d="M21.25,59.58c-2.25-2.19-4.18-4.81-5.79-7.67c1.53,3.03,3.22,5.98,4.66,7.62c2.3,2.61,8.02,5.98,11.61,7.5
			c2.54,1.08,7.66,3.3,10.39,3.75c1.63,0.27,4.26,0.38,7.14,0.4C39.24,71,28.19,66.33,21.25,59.58z"/>
	</g>
</g>
<path class="st5" d="M10.5,25.38c-4.77-1.49,15.9-5.87,21.44-6.83c7.26-1.26,16.38-2.36,29.38-2.36c3.35,0,20.14,1.16,26.75,2.31
	c5.36,0.93,24.71,6.2,20.5,7.37"/>
<g>
	<path class="st2" d="M61.33,16.19c-13,0-22.12,1.1-29.38,2.36c-4.49,0.78-18.9,4.05-21.68,5.96c0.08,0.03,0.14-0.18,0.24-0.15
		c0,0,6.29,1.34,13.56-0.64c11.47-3.12,28.28-4.04,36.36-4c6.51,0.03,19.88,0.78,34.08,4c8.08,1.84,14.06,1.13,14.06,1.13
		c0.04-0.01,0.06-0.02,0.1-0.04c-2.75-1.97-16.25-5.56-20.59-6.31C81.46,17.36,64.68,16.19,61.33,16.19z"/>
</g>
<path class="st6" d="M37.87,30.09l-1.39,2.29c0,0-13.32-9.42-17.33-12.07c-3.32-2.19-8.38-5.51-18.87-13.75
	c-1.44-1.13,3.14-7.65,4.5-6.42c5.56,5.04,10.91,9.13,14.14,12.06C24.61,17.38,37.87,30.09,37.87,30.09z"/>
<path class="st5" d="M9.18,24.99c4.88,1.1,15.62,4.39,20.58,5.07c5.88,0.81,18.77,1.57,24.56-0.09c2.14-0.62,11.87-6.48,15.17-7.67
	c1.72-0.62,13.83,7.28,15.31,7.65c3.25,0.82,10.06-1.38,13.39-1.78c2.42-0.29,10.74-2.18,10.96-2.28"/>
<g>
	<path class="st2" d="M68.69,23.84c-0.67,0.11-1.26,0.3-1.73,0.54c-4.54,1.88-10.01,7.35-13.27,9.3c5.87,0,9.79-6.2,16.19-6.31
		c6.4,0.11,10.31,6.31,16.19,6.31c-3.25-1.94-8.72-7.41-13.27-9.3c-0.47-0.24-1.06-0.43-1.73-0.54c-0.11-0.02-0.21-0.03-0.31-0.05
		c-0.14-0.02-0.28-0.03-0.43-0.04c-0.1-0.01-0.21-0.03-0.31-0.03c-0.05,0-0.09,0.01-0.14,0.01c-0.05,0-0.09-0.01-0.14-0.01
		c-0.1,0-0.21,0.02-0.31,0.03c-0.15,0.01-0.29,0.02-0.43,0.04C68.9,23.81,68.8,23.82,68.69,23.84z"/>
</g>
<path d="M67.24,33.67c0,0-0.29,3.34-4.29,4.19c-3.56,0.76-4.52,5.05-4.71,7.22c-0.16,1.81,0,7.27,0,7.27s1.93-2.08,4.96-2.08
	c1.13,0,4.04,1.82,4.04,1.82"/>
<g>
	<path d="M67.24,34.92c0,0-0.29,3.34-4.29,4.19c-3.56,0.76-4.52,5.05-4.71,7.22c-0.16,1.81,0,7.27,0,7.27s1.93-2.08,4.96-2.08
		c1.13,0,4.04,1.82,4.04,1.82"/>
	<g>
		<path class="st4" d="M63.22,39.42c4-0.86,4.27-2.71,4.29-4.22c0.01-0.6-0.13-2.41-0.13-2.41s-0.16,3.51-4.17,4.37
			c-3.56,0.77-4.79,5.58-4.98,7.77c-0.06,0.73-0.08,2.05-0.07,3.37c0.01-0.85,0.03-1.62,0.07-2.11C58.43,44,59.66,40.19,63.22,39.42
			z"/>
		<path class="st4" d="M58.24,54.26c1.25,0.49,1.93-2.08,4.96-2.08c1.13,0,3.07,2.35,4.04,1.82c0.27-0.15,0-1.25,0-1.25
			s-2.9-1.82-4.04-1.82c-3.04,0-4.96,2.08-4.96,2.08S57.95,54.14,58.24,54.26z"/>
	</g>
</g>
<g>
	<path d="M70.94,34.92c0,0,0.29,3.34,4.29,4.19c3.56,0.76,4.52,5.05,4.71,7.22c0.16,1.81,0,7.27,0,7.27s-1.93-2.08-4.96-2.08
		c-1.13,0-4.04,1.82-4.04,1.82"/>
	<g>
		<path class="st4" d="M74.96,39.42c-4-0.86-4.27-2.71-4.29-4.22c-0.01-0.6,0.13-2.41,0.13-2.41s0.16,3.51,4.17,4.37
			c3.56,0.77,4.79,5.58,4.98,7.77c0.06,0.73,0.08,2.05,0.07,3.37c-0.01-0.85-0.03-1.62-0.07-2.11C79.75,44,78.52,40.19,74.96,39.42z
			"/>
		<path class="st4" d="M79.94,54.26c-1.25,0.49-1.93-2.08-4.96-2.08c-1.13,0-3.07,2.35-4.04,1.82c-0.27-0.15,0-1.25,0-1.25
			s2.9-1.82,4.04-1.82c3.04,0,4.96,2.08,4.96,2.08S80.23,54.14,79.94,54.26z"/>
	</g>
</g>
<path class="st7" d="M67.94-46.96h9H67.94z"/>
<g>
	<polygon class="st3" points="35.52,62.7 32.49,58.71 31.42,55.61 29.73,54.42 28.35,51.86 27.05,47.86 27.31,45.7 25.48,43.04 
		27.73,39.33 23.89,42.81 25.01,45.25 25.24,49.37 19.87,48.06 24.18,51.32 27.19,56.3 28.42,61.88 33.45,64.75 41.44,64.88 	"/>
</g>
<g>
	<g>
		<path class="st8" d="M74.08,63.3c-0.5-0.34-4.48-3-5.18-3c-0.75,0-4.52,2.24-5.21,3.03v-0.01c0.02-0.01,0.03-0.03,0.04-0.04
			c1.29-1.46,3.83-4.16,5.17-4.16C70.25,59.12,72.82,61.84,74.08,63.3z"/>
	</g>
	<g>
		<path d="M74.12,63.32c-0.01,0-0.02-0.01-0.03-0.02h-0.01c-1.26-1.46-3.83-4.18-5.18-4.18c-1.34,0-3.88,2.7-5.17,4.16
			c-0.01,0.01-0.02,0.03-0.04,0.04c0.2-0.31,3.43-5.21,5.21-5.21C70.69,58.11,73.92,63.01,74.12,63.32z"/>
		<path d="M74.13,63.33h-0.02c-0.01-0.01-0.02-0.02-0.02-0.03c0.01,0.01,0.02,0.02,0.03,0.02S74.13,63.33,74.13,63.33z"/>
	</g>
</g>
<g>
	<polygon class="st0" points="36.48,61.66 33.46,57.67 32.38,54.57 30.69,53.38 29.31,50.82 28.02,46.82 28.27,44.66 26.44,41.99 
		28.69,38.29 24.86,41.77 25.97,44.21 26.2,48.33 19.12,48.08 25.14,50.28 28.15,55.26 29.38,60.84 34.42,63.71 41.44,64.88 	"/>
</g>
</svg>
